# xmcd
#
# Track frame offsets: 
#        150
#        6142
#        20357
#        32780
#        43710
#        62442
#        77480
#        99402
#        119125
#        131642
#        144907
#        158372
#        173850
#        187940
#
# Disc length: 2917 seconds
#
# Revision: 0
# Processed by: cddbd v1.5.2PL0 Copyright (c) Steve Scherf et al.
# Submitted via: ExactAudioCopy v1.5
#
DISCID=a70b630e
DTITLE=Various Artist - JAZZ and TZAZ 175 - AMERICANA
DYEAR=2007
DGENRE=
TTITLE0=NORMAN BLAKE - DOWN AT MYLOW'S HOUSE
TTITLE1=ALISON KRAUSS AND UNION STATION - MY POOR OLD HEART
TTITLE2=BLUE HIGHWAY - LIVE ON DOWN THE LINE
TTITLE3=RICE, RICE, HILLMAN AND PEDERSEN - SIDE EFFECTS OF LOVE
TTITLE4=JIMMIE DALE GILMORE - YOUR LOVE IS MY REST
TTITLE5=THE WAYFARING STRANGERS - MAN OF CONSTANT SORROW
TTITLE6=ROB ICKES - STANFORD AND SON
TTITLE7=SCRUGGS, WATSON, SKAGGS, KRAUSS - THE BANKS OF THE OHIO
TTITLE8=VERN WILLIAMS - OLD KENTUCKY HOME
TTITLE9=ROBY BLOCK - I'LL GO WITH HIM
TTITLE10=TONY FURTADO AND DIRK POWELL - BANE'S GRAVE
TTITLE11=TISH HINOJOSA - TAOS TO TENNESSEE
TTITLE12=NANCI GRIFFITH - LAST TRAIN HOME
TTITLE13=BELA FLECK - THE NATURAL BRIDGE SUITE
EXTD=
EXTT0=
EXTT1=
EXTT2=
EXTT3=
EXTT4=
EXTT5=
EXTT6=
EXTT7=
EXTT8=
EXTT9=
EXTT10=
EXTT11=
EXTT12=
EXTT13=
PLAYORDER=
